# xmcd
#
# Track frame offsets:
#	150
#	28969
#	52436
#	73238
#	94281
#	129800
#	151593
#	166506
#	181162
#	207815
#	232054
#	255335
#
# Disc length: 3724 seconds
#
# Revision: 0
# Processed by: cddbd v1.4PL0 Copyright (c) Steve Scherf et al.
# Submitted via: audiograbber 1.81.02
#
DISCID=9d0e8a0c
DTITLE=Ratdog - 1995-08-09 - Disc 1
DYEAR=1900
DGENRE=
TTITLE0=rd1995-08 - 09d1t01
TTITLE1=rd1995-08 - 09d1t02
TTITLE2=rd1995-08 - 09d1t03
TTITLE3=rd1995-08 - 09d1t04
TTITLE4=rd1995-08 - 09d1t05
TTITLE5=rd1995-08 - 09d1t06
TTITLE6=rd1995-08 - 09d1t07
TTITLE7=rd1995-08 - 09d1t08
TTITLE8=rd1995-08 - 09d1t09
TTITLE9=rd1995-08 - 09d1t10
TTITLE10=rd1995-08 - 09d1t11
TTITLE11=rd1995-08 - 09d1t12
EXTD=
EXTT0=
EXTT1=
EXTT2=
EXTT3=
EXTT4=
EXTT5=
EXTT6=
EXTT7=
EXTT8=
EXTT9=
EXTT10=
EXTT11=
PLAYORDER=
